# xmcd CD database file
# Copyright (C) 1993-1996 Ti Kan
#
# Track frame offsets:
#  150
#  14257
#  28267
#  44618
#  62813
#  79347
#  93737
#  113578
#  134951
#  155428
#  174314
#  192507
#  209457
#  225307
#
# Disc length: 3226 seconds
#
# Revision: 2
# Processed by: cddbd v1.5.2PL0 Copyright (c) Steve Scherf et al.
# Submitted via: Advanced CD Ripper Pro 2.0
#
DISCID=c60c980e
DTITLE=Eric Bibb - A Ship Called Love
DYEAR=2005
DGENRE=Blues -  Blues Acoustic
TTITLE0=A Ship Called Love
TTITLE1=Victory Voices
TTITLE2=Right Where We Are
TTITLE3=Like Aretha Loves To Sing
TTITLE4=I'll Never Lose You
TTITLE5=The Way You Are
TTITLE6=Stickin' To You
TTITLE7=Troubadour
TTITLE8=That's What I Do
TTITLE9=Turning World
TTITLE10=More O'That
TTITLE11=Faded Jeans
TTITLE12=When I Hear The Waves
TTITLE13=Praise 'n' Thanksgiving
EXTD=
EXTT0=
EXTT1=
EXTT2=
EXTT3=
EXTT4=
EXTT5=
EXTT6=
EXTT7=
EXTT8=
EXTT9=
EXTT10=
EXTT11=
EXTT12=
EXTT13=
PLAYORDER=
